<svg width="721" height="802" viewBox="0 0 721 802" fill="none" xmlns="http://www.w3.org/2000/svg">
<path d="M488.954 0.100167C532.488 -1.30113 579.05 11.922 609.471 44.7063C614.579 50.2103 619.028 56.7933 624.082 62.1763C625.994 64.2133 635.076 67.5453 637.816 68.9273C674.24 87.2973 701.407 119.145 720.176 154.905C676.99 141.206 655.251 143.013 610.25 147.807C596.114 162.044 587.365 178.572 592.254 199.031C596.916 218.543 611.123 232.351 621.01 249.015C681.339 350.702 668.913 474.806 605.405 571.81C595.363 587.161 584.021 600.376 573.117 615.093C580.028 596.073 587.596 562.636 588.67 542.412C583.28 550.707 577.727 561.836 572.425 570.698C546.3 614.359 516.223 643.052 475.273 672.631C487.335 655.486 502.341 622.757 506.703 601.857C486.415 632.768 446.718 660.458 416.188 680.92C397.86 693.203 379.279 703.613 358.844 711.971C350.968 715.192 342.582 717.542 334.578 720.681C339.94 716.616 344.741 713.7 350.136 709.092C365.521 695.952 378.071 680.369 389.526 663.836C378.952 674.02 367.336 682.447 355.2 690.664C282.674 739.768 184.907 768.754 99.5609 786.149C68.0339 792.574 36.3299 798.005 4.30893 801.222C27.7939 787.035 47.6339 775.219 69.8029 758.771L73.8769 755.682C167.243 684.344 230.035 578.688 252.055 463.854C253.408 456.796 254.483 449.862 255.436 442.743C248.888 440.727 242.083 439.049 235.638 436.763C211.753 428.293 185.079 416.203 165.815 399.711C181.559 404.546 198.919 405.726 215.267 404.091C163.667 396.093 99.9759 356.828 69.4339 314.632C100.984 333.713 140.605 340.434 177.033 341.379C130.578 324.579 98.3269 304.7 65.4839 266.944C54.6169 254.451 45.2659 243.053 36.7079 228.695C45.4429 232.186 55.0589 237.267 64.1739 240.995C82.7859 248.608 98.5089 252.037 118.123 255.123C45.1359 213.363 -11.3857 104.616 1.96163 20.5307C7.71623 54.7563 29.6539 84.1323 54.3439 107.516C105.711 156.165 173.664 182.183 243.968 185.177C261.99 185.944 279.55 185.655 297.564 185.196C301.652 172.485 307.922 158.941 313.137 146.551C327.255 113.008 338.453 86.6183 363.146 59.0683C388.387 30.9063 419.887 12.4891 456.824 3.82147C466.698 1.50457 478.862 0.625367 488.954 0.100167Z" fill="black"/>
<path d="M486.122 21.2495C495.373 20.8856 504.4 20.5394 513.767 21.7488C545.011 25.7828 576.564 38.6284 600.148 59.7384C601.252 60.7264 602.155 61.4534 602.465 62.8604C602.038 64.1764 601.824 64.1184 600.662 64.9714C593.505 71.5854 585.239 80.9044 578.894 86.5104C547.165 80.9574 531.135 53.5294 498.982 51.8644C470.27 50.3784 432.884 69.1634 416.385 92.4874C430.25 84.1554 453.04 80.7684 468.977 83.5664C469.543 87.9504 469.828 90.6384 471.502 94.8844C481.573 120.419 514.809 127.101 531.996 104.612C535.686 99.7844 537.691 93.7734 539.778 87.9934C551.946 92.4174 558.612 94.2084 571.703 93.9914C563.36 106.517 558.801 115.501 552.158 129.093C554.748 134.867 557.556 139.887 561.749 144.701C533.602 166.14 513.116 187.715 507.635 224.634C505.099 241.72 508.684 265.986 516.438 281.422C515.934 259.157 519.272 239.815 535.33 223.077C539.434 218.8 545.873 212.919 551.117 210.113L558.237 206.169C583.077 224.576 607.149 264.205 619.748 292.197C627.138 308.616 633.899 331.083 636.59 348.815C643.067 391.486 636.398 433.443 625.226 474.715C620.881 490.764 615.503 509.083 608.015 524.053C608.983 513.376 608.46 501.401 608.442 490.654C608.401 465.025 606.291 440.886 602.796 415.517C601.152 403.581 598.309 390.52 596.946 378.77C595.65 373.245 592.762 366.039 590.692 360.661L593.602 374.245C596.706 390.72 599.445 408.839 598.526 425.876C595.869 475.127 574.02 528.287 546.981 569.086C542.815 575.372 532.538 589.236 527.518 594.238C540.416 555.129 548.993 518.857 553.953 477.9C554.711 471.642 557.137 455.513 556.902 449.495L555.448 448.924C554.163 457.957 552.491 469.846 549.895 478.73C531.639 541.199 495.712 597.218 444.174 637.306C436.718 643.105 425.593 650.677 417.912 655.577C449.143 615.894 463.897 562.907 467.801 513.355C468.108 509.462 468.174 504.07 468.881 500.36C468.926 496.458 468.993 492.575 468.905 488.673C467.002 494.449 465.597 501.48 463.979 507.457C461.839 515.359 459.447 522.534 456.618 530.234C452.157 546.249 444.969 559.754 438.02 574.413C406.198 641.542 339.002 676.885 273.115 703.487C263.267 707.463 252.826 711.951 242.648 715.42L243.499 714.854C247.457 712.253 252.317 709.824 256.51 707.568C293.6 687.611 329.821 664.807 360.619 635.759C378.914 617.148 395.948 597.806 410.028 575.679C436.416 534.208 451.356 486.929 456.644 438.158C452.296 454.209 449.404 462.909 442.884 478.422C436.322 497.189 425.379 512.564 415.732 529.509C403.556 550.894 390.187 567.182 374.923 585.813C324.553 647.301 259.859 685.28 188.993 718.741C168.601 728.369 147.878 736.171 127.114 745.391C145.301 729.849 162.053 713.094 176.785 694.262C177.634 693.177 181.755 687.859 182.533 687.294C184.781 684.18 197.218 667.059 199.304 665.797C207.977 660.925 217.566 656.292 226.515 651.941C288.756 621.781 343.204 577.55 382.998 520.792C388.234 513.323 421.55 459.103 420.68 453.853C416.204 461.349 412.608 467.37 407.826 474.782C366.709 540.393 301.898 588.449 234.724 625.188C229.372 628.115 223.506 631.726 217.996 634.195C223.908 625.03 228.626 617.385 233.696 607.746C234.909 605.441 242.182 591.224 243.12 589.985C248.016 579.246 252.47 569.053 256.7 558.038C298.815 543.433 347.153 505.057 377.568 473.083C384.639 465.65 393.243 457.304 399.367 449.107C402.288 447.096 417.786 420.753 418.868 416.021C439.856 393.962 450.657 379.134 452.9 347.13C455.661 307.737 441.053 276.391 415.764 247.415C409.743 242.161 404.398 236.159 397.954 230.853C373.111 210.399 350.249 198.23 320.382 187.331C322.918 179.037 327.173 170.299 330.452 162.185C354.404 102.926 383.003 45.0884 450.601 27.5934C460.125 23.8161 475.749 21.4873 486.122 21.2495Z" fill="#FDD812"/>
<path d="M182.533 687.294C187.533 689.258 218.399 675.449 224.814 672.614C310.569 634.692 384.153 576.072 432.76 495.148C434.716 491.891 440.745 479.615 442.884 478.422C436.322 497.189 425.379 512.564 415.732 529.509C403.556 550.894 390.187 567.182 374.923 585.813C324.553 647.301 259.859 685.28 188.993 718.741C168.601 728.369 147.878 736.171 127.114 745.391C145.301 729.849 162.053 713.094 176.785 694.262C177.634 693.177 181.755 687.859 182.533 687.294Z" fill="#E8A304"/>
<path d="M320.382 187.331C322.918 179.037 327.173 170.299 330.452 162.185C354.404 102.926 383.003 45.0883 450.601 27.5933C450.162 28.6254 449.703 29.5693 448.669 30.0633C402.1 52.3153 372.805 101.842 373.81 153.242C373.976 161.768 373.841 171.808 376.328 180.28C381.623 197.706 393.628 214.95 403.598 230.106C406.689 234.806 414.592 242.78 415.764 247.415C409.743 242.161 404.398 236.159 397.954 230.853C373.111 210.399 350.249 198.23 320.382 187.331Z" fill="#E8A304"/>
<path d="M558.237 206.169C583.077 224.576 607.149 264.205 619.748 292.197C627.138 308.616 633.899 331.083 636.59 348.815C643.067 391.486 636.398 433.443 625.226 474.715C620.881 490.764 615.503 509.083 608.015 524.053C608.983 513.376 608.46 501.401 608.442 490.654C608.401 465.025 606.291 440.886 602.796 415.517C601.152 403.581 598.309 390.52 596.946 378.77C599.565 383.246 600.792 388.387 602.508 393.244C611.04 417.396 612.089 442.576 617.164 467.38C617.883 464.735 618.234 461.968 618.711 459.274C626.175 416.391 625.222 370.823 615.594 328.309C605.865 285.347 583.326 240.463 551.117 210.113L558.237 206.169Z" fill="#E8A304"/>
<path d="M556.472 435.414C556.523 440.114 555.969 444.277 555.448 448.924C554.163 457.957 552.491 469.846 549.895 478.73C531.639 541.199 495.712 597.218 444.174 637.306C436.718 643.105 425.593 650.677 417.912 655.577C449.143 615.894 463.897 562.907 467.801 513.355C468.108 509.462 468.174 504.07 468.881 500.36C468.969 500.511 469.058 500.662 469.146 500.813C475.15 528.083 466.072 576.491 458.827 599.918C466.787 594.29 473.084 587.927 479.97 581.209C515.281 546.764 540.663 500.731 552.266 452.862C553.58 447.443 554.371 440.445 556.472 435.414Z" fill="#E8A304"/>
<path d="M243.12 589.985C246.456 591.469 261.56 584.717 265.496 583.056C299.749 568.622 330.867 548.638 358.673 524.002C365.788 517.698 373.075 510.241 379.598 503.602C383.778 499.347 404.129 476.015 407.826 474.782C366.709 540.393 301.898 588.449 234.724 625.188C229.372 628.115 223.506 631.726 217.996 634.195C223.908 625.03 228.626 617.385 233.696 607.746C234.909 605.441 242.182 591.224 243.12 589.985Z" fill="#E8A304"/>
<path d="M593.602 374.245C596.706 390.72 599.445 408.839 598.526 425.876C595.869 475.127 574.02 528.287 546.981 569.086C542.815 575.372 532.538 589.236 527.518 594.238C540.416 555.129 548.993 518.857 553.953 477.9C554.711 471.642 557.137 455.513 556.902 449.495L555.448 448.924C555.969 444.277 556.523 440.114 556.472 435.414L556.704 434.644L558.118 434.931C558.328 434.291 558.905 426.855 559.05 425.481C560.43 430.262 561.006 436.162 561.68 441.154C565.448 469.028 561.06 496.4 559.589 524.271C583.401 487.905 595.939 443.366 594.52 399.878C594.317 393.657 592.309 379.417 593.602 374.245Z" fill="#E8A304"/>
<path d="M556.704 434.644L558.118 434.931C557.772 439.768 557.483 444.687 556.902 449.495L555.448 448.924C555.969 444.277 556.523 440.114 556.472 435.414L556.704 434.644Z" fill="#1B0700"/>
<path d="M360.619 635.759C360.911 635.89 361.684 636.276 361.961 636.191C394.736 626.149 418.711 596.25 435.864 568.225C440.637 560.426 453.387 532.365 456.618 530.234C452.157 546.249 444.969 559.754 438.02 574.413C406.198 641.542 339.002 676.885 273.115 703.487C263.267 707.463 252.826 711.951 242.648 715.42L243.499 714.854C247.457 712.253 252.317 709.824 256.51 707.568C293.6 687.611 329.821 664.807 360.619 635.759Z" fill="#E8A304"/>
<path d="M486.122 21.2495C495.373 20.8856 504.4 20.5394 513.767 21.7488C545.011 25.7828 576.564 38.6284 600.148 59.7384C601.252 60.7264 602.155 61.4534 602.465 62.8604C602.038 64.1764 601.824 64.1184 600.662 64.9714C575.58 42.8204 539.284 27.4346 505.736 24.5754C501.518 24.2159 484.942 24.7657 482.926 23.6343C483.867 22.0574 484.204 22.2826 486.122 21.2495Z" fill="url(#paint0_linear_127_700)"/>
<path d="M558.248 420.322C558.622 421.961 558.824 423.797 559.05 425.481C558.905 426.855 558.328 434.291 558.118 434.931L556.704 434.644C557.115 429.912 557.442 424.987 558.248 420.322Z" fill="#532B01"/>
<path d="M44.5188 129.426C49.7768 135.967 55.9288 140.871 61.5568 146.908C65.4668 150.135 71.4548 154.567 74.9608 157.667C79.0218 160.008 83.8488 163.23 87.7688 165.866C128.165 193.025 174.868 203.036 222.607 207.742L245.389 209.748C248.596 210.001 255.006 210.311 257.968 210.797C310.642 212.039 360.571 232.944 396.083 271.732C398.611 274.492 403.502 279.35 405.442 282.213C408.569 285.174 412.289 290.806 414.847 294.394C429.632 315.129 435.025 335.811 436.555 361.018C434.793 361.168 432.55 361.426 430.819 361.399C396.966 361.864 377.355 357.401 347.715 341.595C363.353 343.735 382.99 339.838 397.591 334.291C396.097 334.137 388.936 335.056 386.923 335.157C352.45 336.877 321.187 331.254 294.64 308.644C297.481 309.2 299.94 309.416 302.808 310.166C327.555 313.568 348.314 313.847 372.861 308.49C370.958 308.069 368.682 307.975 366.712 307.825C336.088 308.465 303.573 304.212 276.543 288.983C270.445 285.547 264.338 281.575 259.468 276.502C257.14 274.906 254.168 271.933 252.03 269.922C266.382 272.643 280.452 276.399 295.087 277.702C304.059 278.501 313.041 278.978 322.029 279.558C316.189 277.484 305.381 275.904 298.507 273.907C269.968 265.615 244.408 257.297 222.35 236.179C216.293 230.381 211.811 224.994 206.266 218.792C212.712 229.147 217.952 240.375 224.467 250.708C227.23 255.092 230.017 259.453 232.836 263.802C236.443 268.51 239.959 273.733 243.639 278.266C241.575 278.494 234.327 279.546 232.932 279.278C231.17 278.198 217.653 275.683 214.475 274.882C139.839 256.054 78.0798 197.52 44.5188 129.426Z" fill="#FDD812"/>
<path d="M44.5188 129.426C49.7768 135.967 55.9288 140.871 61.5568 146.908C60.6668 150.303 64.6368 154.525 66.7698 157.265C79.2558 177.305 109.477 198.347 128.294 212.584C149.988 228.998 173.11 242.228 197.597 253.944C202.084 256.091 229.438 265.927 232.836 263.802C236.443 268.51 239.959 273.733 243.639 278.266C241.575 278.494 234.327 279.546 232.932 279.278C231.17 278.198 217.653 275.683 214.475 274.882C139.839 256.054 78.0798 197.52 44.5188 129.426Z" fill="#E8A304"/>
<path d="M222.607 207.742L245.389 209.748C248.596 210.001 255.006 210.311 257.968 210.797C310.642 212.039 360.571 232.944 396.083 271.732C398.611 274.492 403.502 279.35 405.442 282.213L404.385 282.598C401.923 282.128 377.812 264.319 375.344 261.62C368.346 258.261 360.676 252.9 352.589 249.038C350.443 247.142 342.76 243.238 339.75 241.798C315.707 230.29 289.869 221.426 263.684 216.475C251.249 214.123 229.107 213.804 218.228 209.647L217.979 209.073C219.546 208.123 220.803 208.058 222.607 207.742Z" fill="url(#paint1_linear_127_700)"/>
<path d="M257.968 210.797C310.642 212.039 360.571 232.944 396.083 271.732C398.611 274.492 403.502 279.35 405.442 282.213L404.385 282.598C401.923 282.128 377.812 264.319 375.344 261.62C375.317 261.395 375.29 261.17 375.263 260.945C350.68 235.686 315.928 221.389 281.888 215.169C271.731 213.313 261.067 212.78 257.968 210.797Z" fill="#FDD812"/>
<path d="M352.589 249.038C360.676 252.9 368.346 258.261 375.344 261.62C377.812 264.319 401.923 282.128 404.385 282.598L405.442 282.213C408.569 285.174 412.289 290.806 414.847 294.394C429.632 315.129 435.025 335.811 436.555 361.018C434.793 361.168 432.55 361.426 430.819 361.399C431.336 354.348 429.417 347.382 428.195 340.684C422.252 308.097 396.959 285.919 372.652 265.922C367.893 262.007 355.815 253.929 352.589 249.038Z" fill="#E8A304"/>
<path d="M259.468 276.502C267.422 278.565 277.396 282.95 285.629 285.434C296.543 288.726 307.573 290.849 318.363 293.963L351.787 303.549C355.707 304.662 363.222 307.149 366.712 307.825C336.088 308.465 303.573 304.212 276.543 288.983C270.445 285.547 264.338 281.575 259.468 276.502Z" fill="#E8A304"/>
<path d="M294.64 308.644C297.481 309.2 299.94 309.416 302.808 310.166L302.551 311.351C315.724 319.389 331.971 322.019 346.987 325.571C361.287 328.954 377.734 331.171 392.494 331.923C394.124 332.006 401.302 331.668 402.238 332.771C400.94 333.455 399.028 334.586 397.591 334.291C396.097 334.137 388.936 335.056 386.923 335.157C352.45 336.877 321.187 331.254 294.64 308.644Z" fill="#E8A304"/>
<path d="M61.5569 146.908C65.4669 150.135 71.4549 154.567 74.9609 157.667C71.2839 158.221 70.1689 152.993 64.8999 152.615L64.8899 153.203C65.8949 154.597 66.8629 155.485 66.7699 157.265C64.6369 154.525 60.6669 150.303 61.5569 146.908Z" fill="#FDD812"/>
<path d="M111.813 273.115C142.92 279.314 170.431 282.259 202.338 281.335C212.561 281.039 223.48 279.532 232.932 279.278C234.327 279.546 241.575 278.494 243.639 278.266C251.648 287.305 259.636 296.194 268.331 304.575C269.296 305.505 271.871 307.906 272.574 308.889C316.257 347.349 357.5 375.222 417.51 377.634C413.369 382.853 408.991 388.26 403.846 392.456C362.569 426.117 306.596 426.275 257.048 414.965C253.777 414.219 250.442 413.762 247.136 413.486C254.413 412.166 264.124 410.337 271.064 408.295C289.112 402.983 329.443 386.899 340.836 372.23C335.437 373.758 330.678 376.372 325.447 378.361C317.853 381.053 309.308 383.82 301.373 385.107C263.352 391.273 223.635 385.533 187.631 372.421C183.296 370.842 171.078 367.228 167.843 365.105C164.857 364.273 144.949 355.796 142.019 354.245C176.989 361.004 216.628 360.37 251.133 351.182C263.137 347.985 277.257 342.414 289.04 338.063C285.541 337.835 272.85 340.64 268.121 341.09C258.438 342.235 249.105 340.727 239.541 339.088C188.323 330.315 140.256 306.767 100.446 273.905C105.083 273.851 106.725 275.229 110.373 275.683L111.437 273.989L111.218 273.734L111.813 273.115Z" fill="#E8A304"/>
<path d="M111.813 273.115C142.92 279.314 170.431 282.259 202.338 281.335C212.561 281.039 223.48 279.532 232.932 279.278C234.327 279.546 241.575 278.494 243.639 278.266C251.648 287.305 259.636 296.194 268.331 304.575C269.296 305.505 271.871 307.906 272.574 308.889C273.815 311.895 280.656 317.508 283.392 320.007C280.619 319.952 279.073 318.38 276.369 316.742C278.209 318.59 279.354 319.573 281.4 321.2C235.3 322.657 188.776 307.398 145.76 291.773C134.785 287.786 120.687 279.08 111.035 275.896L110.373 275.683L111.437 273.989L111.218 273.734L111.813 273.115Z" fill="#FDD812"/>
<path d="M289.04 338.063C292.536 337.478 296.115 336.363 299.583 335.556C303.728 338.902 312.85 345.877 316.207 349.369C276.912 373.755 238.876 374.497 194.579 367.917C189.342 367.139 171.665 363.624 167.782 364.37L168.049 364.731L167.843 365.105C164.857 364.273 144.949 355.796 142.019 354.245C176.989 361.004 216.628 360.37 251.133 351.182C263.137 347.985 277.257 342.414 289.04 338.063Z" fill="#FDD812"/>
<path d="M418.868 416.021C417.786 420.753 402.288 447.096 399.367 449.107C397.39 449.768 386.025 461.744 383.417 463.996C350.445 492.463 305.91 516.714 263.982 527.882C264.685 524.353 265.88 520.075 266.903 516.601C273.52 494.124 276.574 472.269 279.525 449.147C281.385 449.285 283.599 449.486 285.424 449.696C323.179 454.029 362.144 450.013 395.77 431.158C404.203 426.429 411.17 422.381 418.868 416.021Z" fill="#E8A304"/>
<path d="M568.259 127.716C571.647 120.76 585.249 104.668 591.12 98.4962C596.066 93.2972 607.64 82.5172 613.8 77.6392C614.2 77.6312 614.601 77.6242 615.002 77.6162C641.335 86.1192 667.274 106.602 685.895 126.648C688.147 128.569 688.678 129.419 690.351 131.756C692.046 133.719 693.193 135.884 694.515 138.12C679.416 133.998 657.682 133.454 641.898 134.589C619.697 136.187 586.952 141.987 565.835 132.562C566.677 130.508 567.127 129.628 568.259 127.716Z" fill="#B78A22"/>
<path d="M568.259 127.716C575.864 125.772 583.699 122.858 591.321 120.903C615.921 114.592 639.719 111.204 664.328 119.826C670.706 122.061 674.634 123.665 680.588 126.888C682.569 127.961 688.564 131.156 690.351 131.756C692.046 133.719 693.193 135.884 694.515 138.12C679.416 133.998 657.682 133.454 641.898 134.589C619.697 136.187 586.952 141.987 565.835 132.562C566.677 130.508 567.127 129.628 568.259 127.716Z" fill="#532B01"/>
<path d="M615.002 77.6162C641.335 86.1192 667.274 106.602 685.895 126.648C684.018 126.114 672.544 115.446 669.527 113.271C653.669 101.841 637.382 92.8602 620.002 84.1332C618.065 83.1612 615.968 79.4682 615.002 77.6162Z" fill="white"/>
<path d="M497.578 72.4113C502.71 72.1603 504.258 73.1953 508.948 75.2173C505.089 78.6123 502.928 83.0723 505.97 87.9103C508.457 91.8653 511.751 91.0803 514.21 92.5993C513.425 94.6913 509.951 96.4643 508.033 97.5273C497.521 100.986 490.357 95.3693 487.788 85.2913C489.489 78.4083 490.731 75.2183 497.578 72.4113Z" fill="white"/>
<path d="M93.3098 267.664L111.813 273.115L111.218 273.734L111.437 273.989L110.373 275.683C106.725 275.229 105.083 273.851 100.446 273.905C97.5928 271.787 95.8758 270.116 93.3098 267.664Z" fill="#FDD812"/>
<defs>
<linearGradient id="paint0_linear_127_700" x1="541.093" y1="48.275" x2="549.448" y2="30.2991" gradientUnits="userSpaceOnUse">
<stop stop-color="#FFFFE9"/>
<stop offset="1" stop-color="white"/>
</linearGradient>
<linearGradient id="paint1_linear_127_700" x1="298.24" y1="239.73" x2="305.973" y2="220.755" gradientUnits="userSpaceOnUse">
<stop stop-color="#FFFDE0"/>
<stop offset="1" stop-color="white"/>
</linearGradient>
</defs>
</svg>
